<?xml version="1.0" ?><!DOCTYPE svg  PUBLIC '-//W3C//DTD SVG 1.1//EN'  'http://www.w3.org/Graphics/SVG/1.1/DTD/svg11.dtd'><svg enable-background="new 0 0 128 128" id="Слой_1" version="1.1" viewBox="0 0 128 128" xml:space="preserve" xmlns="http://www.w3.org/2000/svg" xmlns:xlink="http://www.w3.org/1999/xlink"><g><path d="M98,72H69v29h29V72z M94,97H73V76h21V97z" fill="#3EBBC4"/><path d="M17,63.8V126h94V63.8l8,8l7.8-7.8L111,48.2V12H92v17.2l-28-28L1.2,64L9,71.8L17,63.8z M55,122H34V76h21V122   z M107,60v62H59V72H30v50h-9V60h-0.2L64,16.8L107.2,60H107z M64,6.8l32,32V16h11v33.8L121.2,64l-2.2,2.2l-55-55l-55,55L6.8,64   L64,6.8z" fill="#3EBBC4"/></g></svg>