<?xml version="1.0" ?><svg id="OBJECT" viewBox="0 0 512 512" xmlns="http://www.w3.org/2000/svg"><defs><style>.cls-1{fill:#fff;}.cls-2{fill:#3d9ae2;}.cls-3{fill:#bddbff;}</style></defs><title/><ellipse class="cls-1" cx="168.3" cy="166.98" rx="30.61" ry="36.74" transform="translate(-46.96 67.63) rotate(-20)"/><path class="cls-2" d="M172.05,210.55c-16.47,0-32.79-11.94-39.56-30.53a48,48,0,0,1-.47-32.59c3.83-10.63,11.34-18.45,21.15-22,19.75-7.19,42.6,5.61,51,28.53a48.07,48.07,0,0,1,.47,32.59c-3.83,10.63-11.34,18.45-21.16,22A33.29,33.29,0,0,1,172.05,210.55Zm-7.36-72.16a18.54,18.54,0,0,0-6.39,1.12c-5.55,2-9.87,6.64-12.17,13a33.08,33.08,0,0,0,.45,22.37c5.52,15.15,19.75,23.93,31.72,19.57,5.56-2,9.88-6.64,12.17-13a33,33,0,0,0-.45-22.37C185.47,146.56,175,138.39,164.69,138.39Z"/><ellipse class="cls-1" cx="342.87" cy="166.98" rx="36.74" ry="30.61" transform="translate(68.69 432.06) rotate(-70)"/><path class="cls-2" d="M339.13,210.55a33.35,33.35,0,0,1-11.39-2c-9.81-3.57-17.32-11.39-21.15-22a48,48,0,0,1,.47-32.59C315.4,131,338.25,118.22,358,125.41c9.82,3.57,17.33,11.39,21.16,22a48.07,48.07,0,0,1-.47,32.59C371.92,198.61,355.6,210.55,339.13,210.55Zm7.36-72.16c-10.27,0-20.78,8.17-25.34,20.68a33.08,33.08,0,0,0-.45,22.37c2.3,6.37,6.62,11,12.17,13,12,4.36,26.21-4.42,31.72-19.57a33,33,0,0,0,.45-22.37c-2.29-6.36-6.61-11-12.17-13A18.53,18.53,0,0,0,346.49,138.39Z"/><path class="cls-1" d="M402.45,336,297.15,304.5h-82.3L109.55,336A40,40,0,0,0,81,374.29V504.5H431V374.29A40,40,0,0,0,402.45,336Z"/><path class="cls-2" d="M431,512H81a7.5,7.5,0,0,1-7.5-7.5V374.29a47.8,47.8,0,0,1,33.9-45.51l105.3-31.47a7.76,7.76,0,0,1,2.15-.31h82.3a7.76,7.76,0,0,1,2.15.31l105.3,31.47a47.8,47.8,0,0,1,33.9,45.51V504.5A7.5,7.5,0,0,1,431,512ZM88.5,497h335V374.29a32.72,32.72,0,0,0-23.19-31.14L296.06,312H215.94L111.69,343.15A32.72,32.72,0,0,0,88.5,374.29Z"/><polygon class="cls-3" points="256 304.5 214.84 304.5 150.1 323.85 138.11 368.17 167.84 371.73 145.2 412.49 188.13 504.5 256 504.5 256 304.5"/><path class="cls-2" d="M256,512H188.13a7.5,7.5,0,0,1-6.8-4.33l-42.93-92a7.47,7.47,0,0,1,.24-6.81l17.22-31-18.65-2.23a7.51,7.51,0,0,1-6.34-9.41l12-44.32a7.52,7.52,0,0,1,5.1-5.23l64.74-19.35a7.76,7.76,0,0,1,2.15-.31H256a7.5,7.5,0,0,1,7.5,7.5v200A7.5,7.5,0,0,1,256,512Zm-63.1-15h55.6V312H215.94l-59.69,17.84-8.64,31.91,21.12,2.53a7.51,7.51,0,0,1,5.67,11.09l-20.79,37.42Z"/><polygon class="cls-3" points="256 304.5 297.15 304.5 361.9 323.85 373.89 368.17 344.16 371.73 366.8 412.49 323.87 504.5 256 504.5 256 304.5"/><path class="cls-2" d="M323.87,512H256a7.5,7.5,0,0,1-7.5-7.5v-200A7.5,7.5,0,0,1,256,297h41.15a7.76,7.76,0,0,1,2.15.31L364,316.66a7.52,7.52,0,0,1,5.1,5.23l12,44.32a7.51,7.51,0,0,1-6.34,9.41l-18.65,2.23,17.22,31a7.47,7.47,0,0,1,.24,6.81l-42.93,92A7.5,7.5,0,0,1,323.87,512ZM263.5,497h55.6l39.29-84.21L337.6,375.37a7.51,7.51,0,0,1,5.67-11.09l21.12-2.53-8.64-31.91L296.06,312H263.5Z"/><polygon class="cls-1" points="297.15 304.5 214.84 304.5 186.68 312.92 217.63 504.5 219.37 504.5 232.63 504.5 234.37 504.5 277.63 504.5 279.37 504.5 292.63 504.5 294.37 504.5 325.32 312.92 297.15 304.5"/><path class="cls-2" d="M294.37,512H217.63a7.51,7.51,0,0,1-7.41-6.3L179.27,314.11a7.5,7.5,0,0,1,5.26-8.38l28.17-8.42a7.82,7.82,0,0,1,2.15-.31h82.3a7.82,7.82,0,0,1,2.15.31l28.17,8.42a7.5,7.5,0,0,1,5.26,8.38l-31,191.59A7.51,7.51,0,0,1,294.37,512ZM224,497h64l28.88-178.78L296.06,312H215.94l-20.81,6.22Z"/><polygon class="cls-3" points="276 504.5 236 504.5 246 339 266 339 276 504.5"/><path class="cls-2" d="M276,512H236a7.51,7.51,0,0,1-7.49-7.95l10-165.5A7.5,7.5,0,0,1,246,331.5h20a7.5,7.5,0,0,1,7.49,7.05l10,165.5A7.51,7.51,0,0,1,276,512Zm-32-15H268l-9.09-150.5h-5.88Z"/><rect class="cls-1" height="120" width="80" x="216" y="223.63"/><path class="cls-2" d="M296,351.13H216a7.5,7.5,0,0,1-7.5-7.5v-120a7.5,7.5,0,0,1,7.5-7.5h80a7.5,7.5,0,0,1,7.5,7.5v120A7.5,7.5,0,0,1,296,351.13Zm-72.5-15h65v-105h-65Z"/><polygon class="cls-3" points="186.68 312.92 200.62 399.23 256 343.68 216.94 304.5 214.84 304.5 186.68 312.92"/><path class="cls-2" d="M200.62,406.73a7.5,7.5,0,0,1-7.41-6.3l-13.94-86.32a7.5,7.5,0,0,1,5.26-8.38l28.17-8.42a7.76,7.76,0,0,1,2.15-.31h2.09a7.51,7.51,0,0,1,5.31,2.2l39.06,39.19a7.5,7.5,0,0,1,0,10.59l-55.38,55.55A7.51,7.51,0,0,1,200.62,406.73Zm-5.49-88.51,10.55,65.31,39.73-39.85-31.1-31.19Z"/><polygon class="cls-3" points="325.66 312.92 311.72 399.23 256.34 343.68 295.4 304.5 297.49 304.5 325.66 312.92"/><path class="cls-2" d="M311.72,406.73a7.51,7.51,0,0,1-5.31-2.2L251,349a7.5,7.5,0,0,1,0-10.59l39.06-39.19a7.51,7.51,0,0,1,5.31-2.2h2.09a7.82,7.82,0,0,1,2.15.31l28.17,8.42a7.5,7.5,0,0,1,5.26,8.38l-13.95,86.32a7.51,7.51,0,0,1-5.1,5.94A7.61,7.61,0,0,1,311.72,406.73Zm-44.79-63.05,39.73,39.85,10.55-65.31L298,312.49Z"/><rect class="cls-1" height="220" rx="85" ry="85" width="170" x="171" y="53.42"/><path class="cls-2" d="M256,280.92a92.61,92.61,0,0,1-92.5-92.5v-50a92.5,92.5,0,0,1,185,0v50A92.61,92.61,0,0,1,256,280.92Zm0-220a77.59,77.59,0,0,0-77.5,77.5v50a77.5,77.5,0,1,0,155,0v-50A77.59,77.59,0,0,0,256,60.92Z"/><path class="cls-3" d="M256,7.5h0a109.71,109.71,0,0,0-42.8,8.64l73.28,75a117.54,117.54,0,0,0,28.88,47.51C334.11,157.24,366,143.9,366,117.5h0A110,110,0,0,0,256,7.5Z"/><path class="cls-2" d="M336,154.84A36.68,36.68,0,0,1,310.08,144a126.38,126.38,0,0,1-30.25-48.91l-72-73.68a7.5,7.5,0,0,1,2.44-12.15A117.56,117.56,0,0,1,373.5,117.5a36.69,36.69,0,0,1-22.93,34.38A37.69,37.69,0,0,1,336,154.84ZM226.72,19.24l65.13,66.65a7.54,7.54,0,0,1,1.88,3.29,111.18,111.18,0,0,0,26.92,44.14A22.23,22.23,0,0,0,358.5,117.5,102.59,102.59,0,0,0,226.72,19.24Z"/><path class="cls-3" d="M289.28,69.45A99.64,99.64,0,0,0,270,8.38,110.81,110.81,0,0,0,256,7.5h0a110,110,0,0,0-110,110v6.14a43.86,43.86,0,0,0,44.23,43.86l1.17,0C244.8,166.38,288.26,122.84,289.28,69.45Z"/><path class="cls-2" d="M189.81,175a51.35,51.35,0,0,1-51.31-51.36V117.5A117.55,117.55,0,0,1,270.89.94a7.46,7.46,0,0,1,5.1,3,107.26,107.26,0,0,1-10.7,139.43A106.9,106.9,0,0,1,191.56,175l-1.26,0ZM256,15A102.61,102.61,0,0,0,153.5,117.5v6.14A36.35,36.35,0,0,0,190.17,160l1.08,0c49-1,89.6-41.69,90.53-90.68h0a91.67,91.67,0,0,0-16-53.84C262.53,15.15,259.26,15,256,15Z"/></svg>